<svg id="Layer_1" data-name="Layer 1" xmlns="http://www.w3.org/2000/svg" viewBox="0 0 100 100"><defs><style>.cls-1{fill:#fff;fill-rule:evenodd;}</style></defs><title>Untitled-1</title><path class="cls-1" d="M49.76,4A47.68,47.68,0,0,0,34.69,96.92c2.38.44,3.25-1,3.25-2.3s0-4.13-.06-8.11c-13.26,2.88-16.06-6.39-16.06-6.39-2.17-5.51-5.29-7-5.29-7-4.33-3,.33-2.9.33-2.9,4.78.34,7.3,4.91,7.3,4.91,4.25,7.29,11.16,5.18,13.88,4a10.19,10.19,0,0,1,3-6.37c-10.59-1.2-21.72-5.29-21.72-23.56a18.43,18.43,0,0,1,4.91-12.79c-.49-1.21-2.13-6.05.47-12.62,0,0,4-1.28,13.11,4.89a45.19,45.19,0,0,1,23.87,0c9.1-6.17,13.1-4.89,13.1-4.89,2.6,6.56,1,11.41.47,12.62a18.4,18.4,0,0,1,4.9,12.79C80.17,67.5,69,71.53,58.4,72.71c1.71,1.47,3.24,4.38,3.24,8.83,0,6.37-.06,11.52-.06,13.08,0,1.27.86,2.76,3.28,2.29A47.68,47.68,0,0,0,49.76,4Z"/></svg>