<?xml version="1.0" encoding="utf-8"?>
<!-- Generator: Adobe Illustrator 21.1.0, SVG Export Plug-In . SVG Version: 6.00 Build 0)  -->
<svg version="1.1" id="Layer_1" xmlns="http://www.w3.org/2000/svg" xmlns:xlink="http://www.w3.org/1999/xlink" x="0px" y="0px"
	 viewBox="0 0 503 503" style="enable-background:new 0 0 503 503;" xml:space="preserve">
<style type="text/css">
	.st0{fill:#FFFFFF;}
</style>
<g id="Layer_x0020_1">
	<path class="st0" d="M245.7-0.9c-62.7,0-71.6,0.4-97.6,1.5c-26.8,1.2-45.1,5.5-61.1,11.7c-16.6,6.4-30.6,15-44.6,29.1
		S19.7,69.6,13.2,86.1C7,102.2,2.7,120.5,1.4,147.2c-1.2,26.9-1.5,35.4-1.5,103.9c0,68.4,0.3,77,1.5,103.9
		c1.2,26.8,5.5,45.1,11.7,61.1c6.4,16.6,15,30.6,29.1,44.6s28.1,22.6,44.6,29.1c16.1,6.2,34.3,10.5,61.1,11.7
		c26.9,1.2,35.4,1.5,103.9,1.5c68.4,0,77-0.3,103.9-1.5c26.8-1.2,45.1-5.5,61.1-11.7c16.6-6.4,30.6-15,44.6-29.1
		s22.6-28.1,29.1-44.6c6.2-16.1,10.5-34.3,11.7-61.1c1.2-26.1,1.5-34.9,1.5-97.6v-12.5c0-62.7-0.4-71.6-1.5-97.6
		c-1.2-26.8-5.5-45.1-11.7-61.1c-6.4-16.6-15-30.6-29.1-44.6S433.5,18.9,417,12.5c-16.1-6.2-34.3-10.5-61.1-11.7
		c-26.1-1.2-34.9-1.5-97.6-1.5L245.7-0.9L245.7-0.9z M251.9,44.5c67.2,0,75.2,0.3,101.8,1.4c24.6,1.2,37.9,5.3,46.8,8.6
		c11.7,4.5,20.2,10,28.9,18.9c8.8,8.8,14.3,17.2,18.9,28.9c3.5,8.9,7.6,22.2,8.6,46.8c1.2,26.6,1.4,34.6,1.4,101.8
		s-0.3,75.2-1.4,101.8c-1.2,24.6-5.3,37.9-8.6,46.8c-4.5,11.7-10,20.2-18.9,28.9c-8.8,8.8-17.2,14.3-28.9,18.9
		c-8.9,3.5-22.2,7.6-46.8,8.6c-26.6,1.2-34.6,1.4-101.8,1.4s-75.2-0.3-101.8-1.4c-24.6-1.2-37.9-5.3-46.8-8.6
		c-11.7-4.5-20.2-10-28.9-18.9c-8.8-8.8-14.3-17.2-18.9-28.9c-3.5-8.9-7.6-22.2-8.6-46.8c-1.2-26.6-1.4-34.6-1.4-101.8
		s0.3-75.2,1.4-101.8c1.2-24.6,5.3-37.9,8.6-46.8c4.5-11.7,10-20.2,18.9-28.9c8.8-8.8,17.2-14.3,28.9-18.9
		c8.9-3.5,22.2-7.6,46.8-8.6C176.7,44.7,184.7,44.5,251.9,44.5z"/>
	<path class="st0" d="M251.9,335.1c-46.4,0-84-37.6-84-84s37.6-84,84-84s84,37.6,84,84S298.3,335.1,251.9,335.1z M251.9,121.8
		c-71.4,0-129.4,57.9-129.4,129.4c0,71.4,57.9,129.4,129.4,129.4c71.4,0,129.4-57.9,129.4-129.4
		C381.3,179.7,323.4,121.8,251.9,121.8z"/>
	<path class="st0" d="M416.6,116.6c0,16.7-13.5,30.2-30.2,30.2c-16.7,0-30.2-13.5-30.2-30.2s13.5-30.2,30.2-30.2
		C403.1,86.4,416.6,99.9,416.6,116.6z"/>
</g>
</svg>
