<?xml version="1.0" encoding="utf-8"?>
<!-- Generator: Adobe Illustrator 21.1.0, SVG Export Plug-In . SVG Version: 6.00 Build 0)  -->
<svg version="1.1" id="Layer_1" xmlns="http://www.w3.org/2000/svg" xmlns:xlink="http://www.w3.org/1999/xlink" x="0px" y="0px"
	 viewBox="0 0 400 400" style="enable-background:new 0 0 400 400;" xml:space="preserve">
<style type="text/css">
	.st0{fill:#FFFFFF;}
</style>
<g id="Logo__x2014__FIXED">
	<g>
		<path class="st0" d="M127.8,358c146.6,0,226.9-121.6,226.9-226.9c0-3.4,0-6.8-0.2-10.3c15.6-11.2,29.1-25.3,39.8-41.4
			c-14.3,6.4-29.7,10.6-45.9,12.6c16.5-9.8,29.1-25.5,35.1-44.2c-15.4,9.2-32.5,15.7-50.7,19.3C318.3,51.6,297.6,42,274.8,42
			c-44,0-79.8,35.8-79.8,79.8c0,6.2,0.8,12.3,2,18.2c-66.2-3.3-125-35.1-164.4-83.4c-6.8,11.8-10.7,25.5-10.7,40.1
			c0,27.7,14.2,52.1,35.5,66.4c-13.1-0.5-25.3-4-36.1-10c0,0.3,0,0.6,0,1.1c0,38.6,27.5,70.9,63.9,78.2c-6.7,1.9-13.7,2.8-21,2.8
			c-5.1,0-10.1-0.5-14.9-1.4c10.1,31.7,39.7,54.7,74.5,55.4c-27.4,21.5-61.7,34.2-99.1,34.2c-6.4,0-12.8-0.3-19-1.1
			C40.9,344.8,82.9,358,127.8,358"/>
	</g>
</g>
</svg>
